HIERARCHY
ROOT Hips
{
    OFFSET 0.000000 0.000000 0.000000
    CHANNELS 6 Xposition Yposition Zposition Zrotation Xrotation Yrotation
    JOINT Spine
    {
        OFFSET -0.000000 7.236184 0.000000
        CHANNELS 3 Zrotation Xrotation Yrotation
        JOINT Spine1
        {
            OFFSET -0.000000 20.420147 0.000000
            CHANNELS 3 Zrotation Xrotation Yrotation
            JOINT Neck
            {
                OFFSET -0.000000 20.336288 1.848754
                CHANNELS 3 Zrotation Xrotation Yrotation
                JOINT Head
                {
                    OFFSET -0.000000 12.354461 -1.764923
                    CHANNELS 3 Zrotation Xrotation Yrotation
                    End Site
                    {
                        OFFSET -0.000000 22.061537 0.000000
                    }
                }
            }
            JOINT LeftShoulder
            {
                OFFSET 3.573296 18.396038 -0.314103
                CHANNELS 3 Zrotation Xrotation Yrotation
                JOINT LeftArm
                {
                    OFFSET 10.880760 0.000000 0.000000
                    CHANNELS 3 Zrotation Xrotation Yrotation
                    JOINT LeftForeArm
                    {
                        OFFSET 27.185530 0.000000 0.000000
                        CHANNELS 3 Zrotation Xrotation Yrotation
                        JOINT LeftHand
                        {
                            OFFSET 27.825975 0.000000 0.000000
                            CHANNELS 3 Zrotation Xrotation Yrotation
                            End Site
                            {
                                OFFSET 13.236923 0.000000 0.000000
                            }
                        }
                    }
                }
            }
            JOINT RightShoulder
            {
                OFFSET -3.474926 18.396038 -0.314103
                CHANNELS 3 Zrotation Xrotation Yrotation
                JOINT RightArm
                {
                    OFFSET -10.880760 0.000000 0.000000
                    CHANNELS 3 Zrotation Xrotation Yrotation
                    JOINT RightForeArm
                    {
                        OFFSET -27.185530 0.000000 0.000000
                        CHANNELS 3 Zrotation Xrotation Yrotation
                        JOINT RightHand
                        {
                            OFFSET -27.825975 0.000000 0.000000
                            CHANNELS 3 Zrotation Xrotation Yrotation
                            End Site
                            {
                                OFFSET -13.236923 0.000000 0.000000
                            }
                        }
                    }
                }
            }
        }
    }
    JOINT LeftUpLeg
    {
        OFFSET 8.824615 0.000000 0.000000
        CHANNELS 3 Zrotation Xrotation Yrotation
        JOINT LeftLeg
        {
            OFFSET -0.000000 -35.111282 0.000000
            CHANNELS 3 Zrotation Xrotation Yrotation
            JOINT LeftFoot
            {
                OFFSET -0.000000 -42.324711 0.000000
                CHANNELS 3 Zrotation Xrotation Yrotation
                JOINT LeftToeBase
                {
                    OFFSET -0.000000 -5.735999 13.236923
                    CHANNELS 3 Zrotation Xrotation Yrotation
                    End Site
                    {
                        OFFSET -0.000000 0.000000 3.529846
                    }
                }
            }
        }
    }
    JOINT RightUpLeg
    {
        OFFSET -8.824615 0.000000 0.000000
        CHANNELS 3 Zrotation Xrotation Yrotation
        JOINT RightLeg
        {
            OFFSET -0.000000 -35.111282 0.000000
            CHANNELS 3 Zrotation Xrotation Yrotation
            JOINT RightFoot
            {
                OFFSET -0.000000 -42.324711 0.000000
                CHANNELS 3 Zrotation Xrotation Yrotation
                JOINT RightToeBase
                {
                    OFFSET -0.000000 -5.735999 13.236923
                    CHANNELS 3 Zrotation Xrotation Yrotation
                    End Site
                    {
                        OFFSET -0.000000 0.000000 3.529846
                    }
                }
            }
        }
    }
}
MOTION
Frames:    4
Frame Time:    0.008333
-18.031513    82.985580    111.484268    -5.124804    -8.357050    173.813477    -1.600968    -10.701233    0.746626    -2.448866    0.911112    0.916012    4.534629    12.797267    -2.231395    16.306419    -17.307713    2.268651    -2.838207    17.453262    -0.638215    -34.966011    49.497055    -50.660347    18.706955    1.882347    -23.243757    51.573814    0.329313    -11.208736    9.134598    17.538935    -5.455371    25.583750    50.873787    55.378353    -17.260376    1.201949    30.225338    -49.438965    1.872270    8.731151    -0.110867    -15.190994    -3.015542    -2.190822    21.395468    13.696544    -5.088688    -11.855195    -11.553226    -0.707088    -1.027225    0.785244    -12.131554    -25.661097    -8.496614    14.757587    44.665997    -10.678159    8.920655    -0.543886    -14.856969    -1.161890    -8.382610    1.272379
-18.075775    82.949791    111.492142    -5.167517    -8.346030    173.688568    -1.615823    -10.727224    0.820479    -2.560160    0.929853    0.992977    4.377869    12.593525    -2.586686    16.549814    -16.916264    1.912340    -2.847299    17.471786    -0.693539    -34.301502    49.731960    -51.462196    18.477491    2.369151    -23.014359    50.719040    0.769387    -11.339940    9.171924    17.613209    -5.377604    24.855671    51.354576    56.308170    -17.335585    1.724465    30.032118    -49.403786    2.199993    9.135133    -0.133584    -15.276109    -2.956849    -2.251670    21.558641    13.855787    -5.171455    -11.892539    -11.632646    -0.677043    -1.026118    0.751876    -12.197387    -25.521755    -8.392534    14.926722    44.446800    -10.854451    8.931063    -0.695181    -14.767824    -1.219449    -8.472696    1.335604
-18.106205    82.918579    111.506546    -5.188914    -8.345111    173.561005    -1.646256    -10.737679    0.882433    -2.625639    0.934554    1.058534    4.227661    12.399635    -2.949305    16.802687    -16.558792    1.554956    -2.837132    17.471657    -0.739290    -33.840332    49.824043    -51.988331    18.201262    2.766539    -22.721666    49.885788    1.143713    -11.378109    9.190403    17.663013    -5.314791    24.270134    51.682713    56.995972    -17.330847    2.271435    29.779909    -49.442822    2.525459    9.512678    -0.121454    -15.369242    -2.869431    -2.304995    21.716692    13.993643    -5.257606    -11.923982    -11.713864    -0.647053    -1.026891    0.718573    -12.313135    -25.452515    -8.364756    15.117339    44.323818    -11.009137    9.023809    -0.770316    -14.593924    -1.278981    -8.525069    1.400924
-18.124590    82.890945    111.527870    -5.194592    -8.354765    173.426071    -1.698995    -10.734439    0.933474    -2.648237    0.924565    1.114445    4.075408    12.207259    -3.335554    17.079708    -16.217028    1.181156    -2.811506    17.453302    -0.774662    -33.564819    49.790821    -52.260719    17.871992    3.091120    -22.358612    49.055672    1.464192    -11.329584    9.193103    17.694563    -5.265347    23.831539    51.883739    57.451447    -17.254763    2.854060    29.457890    -49.549950    2.861131    9.863348    -0.078402    -15.473273    -2.752588    -2.354553    21.872446    14.120622    -5.351816    -11.949272    -11.803338    -0.615384    -1.028860    0.683407    -12.484070    -25.447882    -8.413689    15.333343    44.288044    -11.149711    9.196898    -0.773733    -14.331260    -1.341961    -8.542642    1.469948
